<mxfile host="app.diagrams.net" modified="2024-01-17T00:17:44.000Z" agent="Mozilla/5.0 (Windows NT 10.0; Win64; x64) AppleWebKit/537.36 (KHTML, like Gecko) Chrome/120.0.0.0 Safari/537.36" etag="daaNjC1gbfKeXEnI0AxF" version="22.1.19" type="device">
  <diagram name="Page-1" id="vp8_3NG6Lgt2mfEqum8c">
    <mxGraphModel dx="1878" dy="998" grid="1" gridSize="10" guides="1" tooltips="1" connect="1" arrows="1" fold="1" page="1" pageScale="1" pageWidth="850" pageHeight="1100" math="0" shadow="0">
      <root>
        <mxCell id="0" />
        <mxCell id="1" parent="0" />
        <mxCell id="zkGYjBgp3yU_Ayn-G6Md-1" value="U" style="shape=umlLifeline;perimeter=lifelinePerimeter;whiteSpace=wrap;container=1;dropTarget=0;collapsible=0;recursiveResize=0;outlineConnect=0;portConstraint=eastwest;newEdgeStyle={&quot;edgeStyle&quot;:&quot;elbowEdgeStyle&quot;,&quot;elbow&quot;:&quot;vertical&quot;,&quot;curved&quot;:0,&quot;rounded&quot;:0};size=65;fontSize=16;" vertex="1" parent="1">
          <mxGeometry x="20" y="20" width="150" height="782" as="geometry" />
        </mxCell>
        <mxCell id="zkGYjBgp3yU_Ayn-G6Md-2" value="MMS" style="shape=umlLifeline;perimeter=lifelinePerimeter;whiteSpace=wrap;container=1;dropTarget=0;collapsible=0;recursiveResize=0;outlineConnect=0;portConstraint=eastwest;newEdgeStyle={&quot;edgeStyle&quot;:&quot;elbowEdgeStyle&quot;,&quot;elbow&quot;:&quot;vertical&quot;,&quot;curved&quot;:0,&quot;rounded&quot;:0};size=65;fontSize=16;" vertex="1" parent="1">
          <mxGeometry x="220" y="20" width="150" height="782" as="geometry" />
        </mxCell>
        <mxCell id="zkGYjBgp3yU_Ayn-G6Md-3" value="NMS" style="shape=umlLifeline;perimeter=lifelinePerimeter;whiteSpace=wrap;container=1;dropTarget=0;collapsible=0;recursiveResize=0;outlineConnect=0;portConstraint=eastwest;newEdgeStyle={&quot;edgeStyle&quot;:&quot;elbowEdgeStyle&quot;,&quot;elbow&quot;:&quot;vertical&quot;,&quot;curved&quot;:0,&quot;rounded&quot;:0};size=65;fontSize=16;" vertex="1" parent="1">
          <mxGeometry x="420" y="20" width="150" height="782" as="geometry" />
        </mxCell>
        <mxCell id="zkGYjBgp3yU_Ayn-G6Md-4" value="Support" style="shape=umlLifeline;perimeter=lifelinePerimeter;whiteSpace=wrap;container=1;dropTarget=0;collapsible=0;recursiveResize=0;outlineConnect=0;portConstraint=eastwest;newEdgeStyle={&quot;edgeStyle&quot;:&quot;elbowEdgeStyle&quot;,&quot;elbow&quot;:&quot;vertical&quot;,&quot;curved&quot;:0,&quot;rounded&quot;:0};size=65;fontSize=16;" vertex="1" parent="1">
          <mxGeometry x="620" y="20" width="150" height="782" as="geometry" />
        </mxCell>
        <mxCell id="zkGYjBgp3yU_Ayn-G6Md-5" value="U" style="shape=umlLifeline;perimeter=lifelinePerimeter;whiteSpace=wrap;container=1;dropTarget=0;collapsible=0;recursiveResize=0;outlineConnect=0;portConstraint=eastwest;newEdgeStyle={&quot;edgeStyle&quot;:&quot;elbowEdgeStyle&quot;,&quot;elbow&quot;:&quot;vertical&quot;,&quot;curved&quot;:0,&quot;rounded&quot;:0};size=65;fontSize=16;" vertex="1" parent="1">
          <mxGeometry x="820" y="20" width="150" height="782" as="geometry" />
        </mxCell>
        <mxCell id="zkGYjBgp3yU_Ayn-G6Md-6" value="" style="points=[];perimeter=orthogonalPerimeter;outlineConnect=0;targetShapes=umlLifeline;portConstraint=eastwest;newEdgeStyle={&quot;edgeStyle&quot;:&quot;elbowEdgeStyle&quot;,&quot;elbow&quot;:&quot;vertical&quot;,&quot;curved&quot;:0,&quot;rounded&quot;:0};fontSize=16;" vertex="1" parent="zkGYjBgp3yU_Ayn-G6Md-5">
          <mxGeometry x="75" y="667" width="10" height="12" as="geometry" />
        </mxCell>
        <mxCell id="zkGYjBgp3yU_Ayn-G6Md-7" value="NMS" style="shape=umlLifeline;perimeter=lifelinePerimeter;whiteSpace=wrap;container=1;dropTarget=0;collapsible=0;recursiveResize=0;outlineConnect=0;portConstraint=eastwest;newEdgeStyle={&quot;edgeStyle&quot;:&quot;elbowEdgeStyle&quot;,&quot;elbow&quot;:&quot;vertical&quot;,&quot;curved&quot;:0,&quot;rounded&quot;:0};size=65;fontSize=16;" vertex="1" parent="1">
          <mxGeometry x="1200" y="20" width="150" height="782" as="geometry" />
        </mxCell>
        <mxCell id="zkGYjBgp3yU_Ayn-G6Md-8" value="" style="points=[];perimeter=orthogonalPerimeter;outlineConnect=0;targetShapes=umlLifeline;portConstraint=eastwest;newEdgeStyle={&quot;edgeStyle&quot;:&quot;elbowEdgeStyle&quot;,&quot;elbow&quot;:&quot;vertical&quot;,&quot;curved&quot;:0,&quot;rounded&quot;:0};fontSize=16;" vertex="1" parent="zkGYjBgp3yU_Ayn-G6Md-7">
          <mxGeometry x="75" y="667" width="10" height="-8" as="geometry" />
        </mxCell>
        <mxCell id="zkGYjBgp3yU_Ayn-G6Md-9" value="MMS" style="shape=umlLifeline;perimeter=lifelinePerimeter;whiteSpace=wrap;container=1;dropTarget=0;collapsible=0;recursiveResize=0;outlineConnect=0;portConstraint=eastwest;newEdgeStyle={&quot;edgeStyle&quot;:&quot;elbowEdgeStyle&quot;,&quot;elbow&quot;:&quot;vertical&quot;,&quot;curved&quot;:0,&quot;rounded&quot;:0};size=65;fontSize=16;" vertex="1" parent="1">
          <mxGeometry x="1514" y="20" width="150" height="782" as="geometry" />
        </mxCell>
        <mxCell id="zkGYjBgp3yU_Ayn-G6Md-10" value="" style="points=[];perimeter=orthogonalPerimeter;outlineConnect=0;targetShapes=umlLifeline;portConstraint=eastwest;newEdgeStyle={&quot;edgeStyle&quot;:&quot;elbowEdgeStyle&quot;,&quot;elbow&quot;:&quot;vertical&quot;,&quot;curved&quot;:0,&quot;rounded&quot;:0};fontSize=16;" vertex="1" parent="zkGYjBgp3yU_Ayn-G6Md-9">
          <mxGeometry x="70" y="211" width="10" height="42" as="geometry" />
        </mxCell>
        <mxCell id="zkGYjBgp3yU_Ayn-G6Md-11" value="" style="points=[];perimeter=orthogonalPerimeter;outlineConnect=0;targetShapes=umlLifeline;portConstraint=eastwest;newEdgeStyle={&quot;edgeStyle&quot;:&quot;elbowEdgeStyle&quot;,&quot;elbow&quot;:&quot;vertical&quot;,&quot;curved&quot;:0,&quot;rounded&quot;:0};fontSize=16;" vertex="1" parent="zkGYjBgp3yU_Ayn-G6Md-9">
          <mxGeometry x="70" y="315" width="10" height="42" as="geometry" />
        </mxCell>
        <mxCell id="zkGYjBgp3yU_Ayn-G6Md-12" value="" style="points=[];perimeter=orthogonalPerimeter;outlineConnect=0;targetShapes=umlLifeline;portConstraint=eastwest;newEdgeStyle={&quot;edgeStyle&quot;:&quot;elbowEdgeStyle&quot;,&quot;elbow&quot;:&quot;vertical&quot;,&quot;curved&quot;:0,&quot;rounded&quot;:0};fontSize=16;" vertex="1" parent="zkGYjBgp3yU_Ayn-G6Md-9">
          <mxGeometry x="70" y="667" width="10" height="2" as="geometry" />
        </mxCell>
        <mxCell id="zkGYjBgp3yU_Ayn-G6Md-13" value="Support" style="shape=umlLifeline;perimeter=lifelinePerimeter;whiteSpace=wrap;container=1;dropTarget=0;collapsible=0;recursiveResize=0;outlineConnect=0;portConstraint=eastwest;newEdgeStyle={&quot;edgeStyle&quot;:&quot;elbowEdgeStyle&quot;,&quot;elbow&quot;:&quot;vertical&quot;,&quot;curved&quot;:0,&quot;rounded&quot;:0};size=65;fontSize=16;" vertex="1" parent="1">
          <mxGeometry x="1714" y="20" width="150" height="782" as="geometry" />
        </mxCell>
        <mxCell id="zkGYjBgp3yU_Ayn-G6Md-14" value="" style="points=[];perimeter=orthogonalPerimeter;outlineConnect=0;targetShapes=umlLifeline;portConstraint=eastwest;newEdgeStyle={&quot;edgeStyle&quot;:&quot;elbowEdgeStyle&quot;,&quot;elbow&quot;:&quot;vertical&quot;,&quot;curved&quot;:0,&quot;rounded&quot;:0};fontSize=16;" vertex="1" parent="zkGYjBgp3yU_Ayn-G6Md-13">
          <mxGeometry x="70" y="615" width="10" height="42" as="geometry" />
        </mxCell>
        <mxCell id="zkGYjBgp3yU_Ayn-G6Md-15" value="" style="points=[];perimeter=orthogonalPerimeter;outlineConnect=0;targetShapes=umlLifeline;portConstraint=eastwest;newEdgeStyle={&quot;edgeStyle&quot;:&quot;elbowEdgeStyle&quot;,&quot;elbow&quot;:&quot;vertical&quot;,&quot;curved&quot;:0,&quot;rounded&quot;:0};fontSize=16;" vertex="1" parent="zkGYjBgp3yU_Ayn-G6Md-13">
          <mxGeometry x="70" y="667" width="10" as="geometry" />
        </mxCell>
        <mxCell id="zkGYjBgp3yU_Ayn-G6Md-16" value="alt" style="shape=umlFrame;dashed=1;pointerEvents=0;dropTarget=0;strokeColor=#B3B3B3;height=20;width=30;fontSize=16;" vertex="1" parent="1">
          <mxGeometry x="880" y="407" width="924" height="300" as="geometry" />
        </mxCell>
        <mxCell id="zkGYjBgp3yU_Ayn-G6Md-17" value="[Mobile Money Details Correct]" style="text;strokeColor=none;fillColor=none;align=center;verticalAlign=middle;whiteSpace=wrap;fontSize=16;" vertex="1" parent="zkGYjBgp3yU_Ayn-G6Md-16">
          <mxGeometry x="30" width="894" height="20" as="geometry" />
        </mxCell>
        <mxCell id="zkGYjBgp3yU_Ayn-G6Md-18" value="[Mobile Money Details Incorrect]" style="shape=line;dashed=1;whiteSpace=wrap;verticalAlign=top;labelPosition=center;verticalLabelPosition=middle;align=center;strokeColor=#B3B3B3;fontSize=16;" vertex="1" parent="zkGYjBgp3yU_Ayn-G6Md-16">
          <mxGeometry y="103" width="924" height="4" as="geometry" />
        </mxCell>
        <mxCell id="zkGYjBgp3yU_Ayn-G6Md-19" value="Request to Contribute" style="verticalAlign=bottom;endArrow=block;edgeStyle=elbowEdgeStyle;elbow=vertical;curved=0;rounded=0;fontSize=12;" edge="1" parent="1" source="zkGYjBgp3yU_Ayn-G6Md-5" target="zkGYjBgp3yU_Ayn-G6Md-7">
          <mxGeometry relative="1" as="geometry">
            <Array as="points">
              <mxPoint x="1095" y="127" />
            </Array>
          </mxGeometry>
        </mxCell>
        <mxCell id="zkGYjBgp3yU_Ayn-G6Md-20" value="Request Mobile Money Contribution Details" style="verticalAlign=bottom;endArrow=block;edgeStyle=elbowEdgeStyle;elbow=vertical;curved=0;rounded=0;fontSize=12;" edge="1" parent="1" source="zkGYjBgp3yU_Ayn-G6Md-7" target="zkGYjBgp3yU_Ayn-G6Md-5">
          <mxGeometry relative="1" as="geometry">
            <Array as="points">
              <mxPoint x="1093" y="179" />
            </Array>
          </mxGeometry>
        </mxCell>
        <mxCell id="zkGYjBgp3yU_Ayn-G6Md-21" value="Initiate Mobile Money Contribution" style="verticalAlign=bottom;endArrow=block;edgeStyle=elbowEdgeStyle;elbow=vertical;curved=0;rounded=0;fontSize=12;" edge="1" parent="1" source="zkGYjBgp3yU_Ayn-G6Md-5" target="zkGYjBgp3yU_Ayn-G6Md-10">
          <mxGeometry relative="1" as="geometry">
            <Array as="points">
              <mxPoint x="1255" y="231" />
            </Array>
          </mxGeometry>
        </mxCell>
        <mxCell id="zkGYjBgp3yU_Ayn-G6Md-22" value="Prompt for Mobile Money Details" style="verticalAlign=bottom;endArrow=block;edgeStyle=elbowEdgeStyle;elbow=vertical;curved=0;rounded=0;dashed=1;dashPattern=2 3;fontSize=12;" edge="1" parent="1" source="zkGYjBgp3yU_Ayn-G6Md-9" target="zkGYjBgp3yU_Ayn-G6Md-5">
          <mxGeometry relative="1" as="geometry">
            <Array as="points">
              <mxPoint x="1252" y="283" />
            </Array>
          </mxGeometry>
        </mxCell>
        <mxCell id="zkGYjBgp3yU_Ayn-G6Md-23" value="Provide Mobile Money Details" style="verticalAlign=bottom;endArrow=block;edgeStyle=elbowEdgeStyle;elbow=vertical;curved=0;rounded=0;fontSize=12;" edge="1" parent="1" source="zkGYjBgp3yU_Ayn-G6Md-5" target="zkGYjBgp3yU_Ayn-G6Md-11">
          <mxGeometry relative="1" as="geometry">
            <Array as="points">
              <mxPoint x="1255" y="335" />
            </Array>
          </mxGeometry>
        </mxCell>
        <mxCell id="zkGYjBgp3yU_Ayn-G6Md-24" value="Notify Mobile Money Contribution" style="verticalAlign=bottom;endArrow=block;edgeStyle=elbowEdgeStyle;elbow=vertical;curved=0;rounded=0;dashed=1;dashPattern=2 3;fontSize=12;" edge="1" parent="1" source="zkGYjBgp3yU_Ayn-G6Md-9" target="zkGYjBgp3yU_Ayn-G6Md-7">
          <mxGeometry relative="1" as="geometry">
            <Array as="points">
              <mxPoint x="1442" y="387" />
            </Array>
          </mxGeometry>
        </mxCell>
        <mxCell id="zkGYjBgp3yU_Ayn-G6Md-25" value="Contribution Successful" style="verticalAlign=bottom;endArrow=block;edgeStyle=elbowEdgeStyle;elbow=vertical;curved=0;rounded=0;dashed=1;dashPattern=2 3;fontSize=12;" edge="1" parent="1" source="zkGYjBgp3yU_Ayn-G6Md-7" target="zkGYjBgp3yU_Ayn-G6Md-5">
          <mxGeometry relative="1" as="geometry">
            <Array as="points">
              <mxPoint x="1095" y="485" />
            </Array>
          </mxGeometry>
        </mxCell>
        <mxCell id="zkGYjBgp3yU_Ayn-G6Md-26" value="Contribution Failed" style="verticalAlign=bottom;endArrow=block;edgeStyle=elbowEdgeStyle;elbow=vertical;curved=0;rounded=0;dashed=1;dashPattern=2 3;fontSize=12;" edge="1" parent="1" source="zkGYjBgp3yU_Ayn-G6Md-7" target="zkGYjBgp3yU_Ayn-G6Md-5">
          <mxGeometry relative="1" as="geometry">
            <Array as="points">
              <mxPoint x="1095" y="583" />
            </Array>
          </mxGeometry>
        </mxCell>
        <mxCell id="zkGYjBgp3yU_Ayn-G6Md-27" value="Request Support" style="verticalAlign=bottom;endArrow=block;edgeStyle=elbowEdgeStyle;elbow=vertical;curved=0;rounded=0;fontSize=12;" edge="1" parent="1" source="zkGYjBgp3yU_Ayn-G6Md-5" target="zkGYjBgp3yU_Ayn-G6Md-14">
          <mxGeometry relative="1" as="geometry">
            <Array as="points">
              <mxPoint x="1355" y="635" />
            </Array>
          </mxGeometry>
        </mxCell>
        <mxCell id="zkGYjBgp3yU_Ayn-G6Md-28" value="Provide Assistance" style="verticalAlign=bottom;endArrow=block;edgeStyle=elbowEdgeStyle;elbow=vertical;curved=0;rounded=0;dashed=1;dashPattern=2 3;fontSize=12;" edge="1" parent="1" source="zkGYjBgp3yU_Ayn-G6Md-13" target="zkGYjBgp3yU_Ayn-G6Md-6">
          <mxGeometry relative="1" as="geometry">
            <Array as="points">
              <mxPoint x="1352" y="687" />
            </Array>
          </mxGeometry>
        </mxCell>
      </root>
    </mxGraphModel>
  </diagram>
</mxfile>
